HIERARCHY
ROOT Hips
{
 OFFSET 0.000000 0.000000 0.000000
 CHANNELS 6 Xposition Yposition Zposition Yrotation Xrotation Zrotation
 JOINT Chest
 {
  OFFSET 0.000000 9.581000 -0.001100
  CHANNELS 3 Yrotation Xrotation Zrotation
  JOINT Chest2
  {
   OFFSET 0.000000 9.561100 0.002200
   CHANNELS 3 Yrotation Xrotation Zrotation
   JOINT Chest3
   {
    OFFSET 0.000000 9.521100 0.000000
    CHANNELS 3 Yrotation Xrotation Zrotation
    JOINT Chest4
    {
     OFFSET 0.000000 9.511400 0.000000
     CHANNELS 3 Yrotation Xrotation Zrotation
     JOINT Neck
     {
      OFFSET 0.000000 14.375100 0.000000
      CHANNELS 3 Yrotation Xrotation Zrotation
      JOINT Head
      {
       OFFSET 0.000000 8.901200 0.004600
       CHANNELS 3 Yrotation Xrotation Zrotation
       End Site
       {
        OFFSET 0.000000 16.962200 0.002400
       }
      }
     }
     JOINT RightCollar
     {
      OFFSET -2.920100 9.518800 0.000000
      CHANNELS 3 Yrotation Xrotation Zrotation
      JOINT RightShoulder
      {
       OFFSET -13.664500 0.000000 0.000000
       CHANNELS 3 Yrotation Xrotation Zrotation
       JOINT RightElbow
       {
        OFFSET 0.000000 -29.999200 0.000000
        CHANNELS 3 Yrotation Xrotation Zrotation
        JOINT RightWrist
        {
         OFFSET 0.000000 -24.253600 0.000000
         CHANNELS 3 Yrotation Xrotation Zrotation
         End Site
         {
          OFFSET 0.000000 -17.918900 0.000000
         }
        }
       }
      }
     }
     JOINT LeftCollar
     {
      OFFSET 2.920100 9.518800 0.000000
      CHANNELS 3 Yrotation Xrotation Zrotation
      JOINT LeftShoulder
      {
       OFFSET 13.664500 0.000000 0.000000
       CHANNELS 3 Yrotation Xrotation Zrotation
       JOINT LeftElbow
       {
        OFFSET 0.000000 -29.999200 0.000000
        CHANNELS 3 Yrotation Xrotation Zrotation
        JOINT LeftWrist
        {
         OFFSET 0.000000 -24.253600 0.000000
         CHANNELS 3 Yrotation Xrotation Zrotation
         End Site
         {
          OFFSET 0.000000 -17.918900 0.000000
         }
        }
       }
      }
     }
    }
   }
  }
 }
 JOINT RightHip
 {
  OFFSET -7.797300 0.005300 0.000500
  CHANNELS 3 Yrotation Xrotation Zrotation
  JOINT RightKnee
  {
   OFFSET 0.000000 -40.663400 -0.000500
   CHANNELS 3 Yrotation Xrotation Zrotation
   JOINT RightAnkle
   {
    OFFSET 0.000000 -39.523700 -0.000900
    CHANNELS 3 Yrotation Xrotation Zrotation
    JOINT RightToe
    {
     OFFSET 0.000000 -6.418000 14.485300
     CHANNELS 3 Yrotation Xrotation Zrotation
     End Site
     {
      OFFSET 0.000000 -1.465200 6.326400
     }
    }
   }
  }
 }
 JOINT LeftHip
 {
  OFFSET 7.797300 0.005300 0.000500
  CHANNELS 3 Yrotation Xrotation Zrotation
  JOINT LeftKnee
  {
   OFFSET 0.000000 -40.663400 -0.000500
   CHANNELS 3 Yrotation Xrotation Zrotation
   JOINT LeftAnkle
   {
    OFFSET 0.000000 -39.523700 -0.000900
    CHANNELS 3 Yrotation Xrotation Zrotation
    JOINT LeftToe
    {
     OFFSET 0.000000 -6.418000 14.485300
     CHANNELS 3 Yrotation Xrotation Zrotation
     End Site
     {
      OFFSET 0.000000 -1.465200 6.326400
     }
    }
   }
  }
 }
}
MOTION
Frames: 5
Frame Time: 0.008333
-15.021276 126.909025 21.380346 -170.916029 -48.288239 -3.442747 -1.925601 25.525621 0.284050 -0.322251 4.109079 0.124062 -0.486701 6.629025 0.124666 -1.575065 21.075044 0.294838 1.158897 18.053470 -1.382912 1.537069 -6.701652 -1.722603 0.700943 3.830482 0.959468 6.353164 -7.726919 -11.648309 -83.108441 -55.666722 138.303888 -2.630896 7.218327 -20.830299 -7.812101 -0.272934 -0.669303 -10.847785 -11.450506 13.228379 63.097650 -58.330786 -111.184684 -0.702751 -12.718361 20.682191 -4.098223 -23.857806 -2.161889 -5.343628 78.020195 -3.613427 10.670709 -12.863391 2.046692 0.000689 -0.002192 0.000305 7.248935 5.055541 3.272465 128.858542 65.623613 148.730379 5.176125 12.347847 4.539692 0.004337 0.001175 0.001922
-15.023076 126.908931 21.379371 -170.908222 -48.276714 -3.462674 -1.909562 25.549316 0.273272 -0.318429 4.106072 0.130888 -0.489192 6.638627 0.121931 -1.565043 21.085985 0.290709 1.187774 17.938784 -1.370146 1.563995 -6.827442 -1.714996 0.723139 3.784301 0.964921 6.371784 -7.735334 -11.685195 -83.107118 -55.636111 138.299606 -2.643135 7.182407 -20.864673 -7.827493 -0.337067 -0.662064 -10.902155 -11.430457 13.220209 62.930562 -58.256020 -111.122639 -0.642282 -12.784913 20.729603 -4.100927 -23.863447 -2.154833 -5.325683 78.018738 -3.586830 10.665831 -12.875441 2.047867 -0.000166 -0.002087 -0.000074 7.252289 5.048085 3.277210 128.838956 65.619251 148.717823 5.176560 12.342117 4.550450 0.003055 -0.000256 0.001354
-15.023673 126.908441 21.378610 -170.898041 -48.261238 -3.489595 -1.898760 25.564016 0.273113 -0.317244 4.109509 0.127174 -0.486390 6.648684 0.123450 -1.556965 21.096833 0.287180 1.213819 17.816946 -1.357823 1.588023 -6.960943 -1.707132 0.742616 3.739772 0.962826 6.364499 -7.736620 -11.674157 -83.086602 -55.641783 138.297885 -2.657632 7.155996 -20.902427 -7.841655 -0.405627 -0.707390 -10.950276 -11.395483 13.253069 62.782084 -58.194019 -111.060556 -0.603006 -12.844082 20.802573 -4.112650 -23.875239 -2.137856 -5.298333 78.020211 -3.557216 10.662334 -12.881625 2.049689 -0.000008 -0.002052 -0.000004 7.253192 5.033940 3.290509 128.829157 65.615668 148.714919 5.177881 12.337102 4.554575 0.001973 -0.001266 0.000874
-15.024806 126.908292 21.377569 -170.891915 -48.248799 -3.508761 -1.889087 25.580906 0.269119 -0.313159 4.116571 0.124733 -0.487348 6.654244 0.123518 -1.549727 21.095121 0.291528 1.228685 17.742197 -1.342656 1.612631 -7.137188 -1.712290 0.758306 3.713347 0.946971 6.361242 -7.733861 -11.656214 -83.087070 -55.643051 138.301892 -2.700435 7.142884 -20.989941 -7.848968 -0.443847 -0.708486 -10.981337 -11.385010 13.226654 62.660818 -58.144138 -111.008055 -0.580700 -12.895869 20.901399 -4.119033 -23.882495 -2.129132 -5.279099 78.019264 -3.536946 10.680224 -12.895228 2.051224 0.001559 -0.002797 0.000691 7.252978 5.024823 3.301650 128.823631 65.616276 148.713156 5.182294 12.338104 4.550608 0.002085 0.000977 0.000924
-15.026439 126.908060 21.376655 -170.883294 -48.236014 -3.524765 -1.883217 25.595724 0.261477 -0.307143 4.154620 0.098726 -0.487516 6.628753 0.147097 -1.543917 21.105173 0.285512 1.249280 17.594326 -1.335084 1.624436 -7.259667 -1.694182 0.775314 3.681102 0.937439 6.348920 -7.743131 -11.623341 -83.077376 -55.648129 138.296031 -2.742332 7.135429 -21.069968 -7.851882 -0.487413 -0.677227 -11.001253 -11.376927 13.174927 62.572138 -58.109323 -110.971111 -0.568038 -12.938004 21.017440 -4.123139 -23.890111 -2.127684 -5.278342 78.020320 -3.525049 10.679985 -12.908998 2.048836 0.001332 -0.003032 0.000590 7.252902 5.014463 3.306378 128.808576 65.613401 148.704681 5.178257 12.329274 4.570838 0.003422 -0.000254 0.001516
